<svg width="28" height="28" viewBox="0 0 28 28" fill="none" xmlns="http://www.w3.org/2000/svg">
<path d="M27.581 17.3869C25.7109 24.887 18.1138 29.4514 10.612 27.5811C3.11335 25.7113 -1.45158 18.1145 0.419371 10.6149C2.28857 3.11395 9.88569 -1.45093 17.3852 0.418948C24.8865 2.28882 29.451 9.88645 27.581 17.3869Z" fill="#F7931A"/>
<path fill-rule="evenodd" clip-rule="evenodd" d="M20.1711 12.0057C20.4498 10.1428 19.0314 9.14136 17.092 8.47329L17.7211 5.94979L16.1851 5.56698L15.5726 8.02398C15.1687 7.92336 14.754 7.82842 14.3419 7.73436L14.9587 5.26117L13.4236 4.87836L12.794 7.40098C12.4597 7.32486 12.1316 7.24961 11.8131 7.17042L11.8149 7.16254L9.6965 6.63361L9.28787 8.27423C9.28787 8.27423 10.4276 8.53542 10.4035 8.55161C11.0256 8.70692 11.1381 9.11861 11.1192 9.44498L10.4026 12.3198C10.4455 12.3307 10.5011 12.3465 10.5623 12.371L10.5103 12.358L10.5103 12.358C10.4746 12.3491 10.4377 12.3398 10.4 12.3307L9.3955 16.3579C9.31937 16.5469 9.12644 16.8304 8.69156 16.7228C8.70687 16.7451 7.57506 16.4441 7.57506 16.4441L6.8125 18.2024L8.81144 18.7007C9.03468 18.7567 9.25524 18.8142 9.4735 18.8711L9.47352 18.8711C9.61883 18.909 9.76312 18.9466 9.9065 18.9834L9.27081 21.5357L10.8051 21.9185L11.4347 19.3933C11.8538 19.507 12.2607 19.612 12.6588 19.7109L12.0314 22.2244L13.5675 22.6072L14.2032 20.0596C16.8225 20.5553 18.7921 20.3554 19.6212 17.9863C20.2892 16.0788 19.5879 14.9785 18.2098 14.261C19.2134 14.0295 19.9694 13.3694 20.1711 12.0057ZM16.6615 16.9271C16.226 18.6772 13.4867 17.9536 12.2333 17.6226C12.1206 17.5928 12.0198 17.5662 11.9339 17.5449L12.7774 14.1634C12.882 14.1895 13.0099 14.2182 13.1547 14.2507L13.1548 14.2507C14.4511 14.5416 17.1078 15.1377 16.6615 16.9271ZM13.4152 12.6815C14.4602 12.9604 16.7396 13.5687 17.1366 11.9781C17.5421 10.3512 15.3267 9.86075 14.2447 9.62123C14.123 9.59429 14.0157 9.57052 13.928 9.54867L13.1632 12.6155C13.2355 12.6335 13.3203 12.6562 13.4152 12.6815Z" fill="white"/>
</svg>
