<svg width="28" height="28" viewBox="0 0 28 28" fill="none" xmlns="http://www.w3.org/2000/svg">
<ellipse cx="13.9998" cy="14" rx="12.4847" ry="12.4847" fill="white"/>
<path fill-rule="evenodd" clip-rule="evenodd" d="M0 14C0 6.26801 6.26799 0 13.9999 0H14.0813C17.7835 0.0107728 21.3298 1.49182 23.9401 4.11734C26.5503 6.74285 28.0107 10.2978 27.9999 14C27.9999 21.732 21.7319 28 13.9999 28C6.26799 28 0 21.732 0 14ZM12.7796 19.3898L14.2372 14.4746L16.5084 13.8305L16.983 12.2034L14.7457 12.8814L17.1186 4.81356V4.68475C17.115 4.58044 17.0702 4.48181 16.9939 4.4106C16.9176 4.33938 16.8161 4.30143 16.7118 4.30509H13.6949C13.4598 4.29784 13.2501 4.45164 13.1864 4.67797L10.3728 14.2373L8.13556 14.9153L7.62709 16.4746L9.86436 15.7966L7.86437 22.6102H19.7965C20.0323 22.6199 20.2434 22.4651 20.305 22.2373L20.983 19.8983V19.7695C20.9794 19.6652 20.9346 19.5666 20.8583 19.4953C20.782 19.4241 20.6805 19.3862 20.5762 19.3898H12.7796Z" fill="#345D9D"/>
</svg>
