<svg width="28" height="28" viewBox="0 0 28 28" fill="none" xmlns="http://www.w3.org/2000/svg">
<path fill-rule="evenodd" clip-rule="evenodd" d="M5.12654 1.86963L0.0209974 12.5938C-0.0188805 12.6757 -0.000825749 12.774 0.0655441 12.8364L13.8544 26.0494C13.9358 26.1275 14.0642 26.1275 14.1456 26.0494L27.9345 12.8372C28.0008 12.7748 28.0189 12.6765 27.979 12.5947L22.8735 1.87046C22.8398 1.7969 22.7663 1.7498 22.6854 1.75002H5.31628C5.23499 1.749 5.16068 1.79585 5.12654 1.86963Z" fill="#50AF95"/>
<path fill-rule="evenodd" clip-rule="evenodd" d="M15.7717 13.6951C15.6727 13.7026 15.1612 13.7331 14.0203 13.7331C13.1129 13.7331 12.4686 13.7059 12.2426 13.6951C8.73575 13.5409 6.11822 12.9304 6.11822 12.1995C6.11822 11.4686 8.73575 10.859 12.2426 10.7023V13.0872C12.4719 13.1037 13.1285 13.1424 14.036 13.1424C15.1249 13.1424 15.6702 13.0971 15.7684 13.088V10.7039C19.2677 10.8598 21.8795 11.4703 21.8795 12.1995C21.8795 12.9288 19.2686 13.5392 15.7684 13.6943L15.7717 13.6951ZM15.7717 10.4573V8.32314H20.6553V5.06876H7.35893V8.32314H12.2417V10.4564C8.27296 10.6387 5.28833 11.4249 5.28833 12.367C5.28833 13.3091 8.27296 14.0944 12.2417 14.2775V21.1163H15.7708V14.2751C19.7305 14.0928 22.7102 13.3074 22.7102 12.3662C22.7102 11.4249 19.733 10.6396 15.7708 10.4564L15.7717 10.4573Z" fill="white"/>
</svg>
