<svg width="16" height="15" viewBox="0 0 16 15" fill="none" xmlns="http://www.w3.org/2000/svg">
<path d="M6.48828 10.875V4.125L10.9883 7.5L6.48828 10.875ZM15.4883 7.5C15.4883 11.6484 12.1484 14.9883 8 14.9883C3.85156 14.9883 0.511719 11.6484 0.511719 7.5C0.511719 6.62109 0.652344 5.77734 0.933594 4.96875L2.375 5.46094C2.12891 6.09375 1.98828 6.79688 1.98828 7.5C1.98828 10.8047 4.69531 13.5117 8 13.5117C11.3047 13.5117 14.0117 10.8047 14.0117 7.5C14.0117 4.19531 11.3047 1.48828 8 1.48828C7.29688 1.48828 6.62891 1.62891 5.99609 1.875L5.46875 0.433594C6.27734 0.152344 7.12109 0.0117188 8 0.0117188C12.1484 0.0117188 15.4883 3.35156 15.4883 7.5ZM3.11328 1.48828C2.51562 1.48828 1.98828 2.01562 1.98828 2.61328C1.98828 3.24609 2.51562 3.73828 3.11328 3.73828C3.74609 3.73828 4.23828 3.24609 4.23828 2.61328C4.23828 2.01562 3.74609 1.48828 3.11328 1.48828Z" fill="white"/>
</svg>
