<svg width="1597" height="387" viewBox="0 0 1597 387" fill="none" xmlns="http://www.w3.org/2000/svg">
<path d="M468.785 82.3959C491.783 82.3959 510.419 85.3178 524.732 91.1818C539.026 97.0457 550.324 106.092 558.626 118.34C563.974 126.585 568.115 135.912 571.05 146.279C573.985 156.666 575.453 168.634 575.453 182.203C575.453 193.911 574.387 205.618 572.236 217.326C570.085 229.034 567.09 240.282 563.21 251.069C559.33 261.856 554.646 271.963 549.178 281.409C543.69 290.856 537.618 299.181 530.924 306.366C518.36 319.935 503.845 329.461 487.421 334.905C470.976 340.349 450.732 343.091 426.669 343.091C402.605 343.091 384.693 340.689 370.52 335.906C356.347 331.123 345.11 323.397 336.827 312.75C330.937 305.305 326.333 295.859 322.996 284.411C319.659 272.964 317.99 258.594 317.99 241.302C317.99 211.763 323.257 185.345 333.832 162.049C344.386 138.754 359.423 120.321 378.943 106.752C390.704 98.5067 403.811 92.3826 418.245 88.3799C432.679 84.3972 449.526 82.3959 468.785 82.3959ZM423.472 315.152C429.624 315.152 435.434 312.43 440.922 306.966C446.39 301.523 451.476 294.198 456.16 285.012C460.844 275.826 465.106 265.379 468.986 253.671C472.866 241.963 476.143 229.855 478.816 217.346C481.49 204.838 483.561 192.39 485.028 180.021C486.496 167.653 487.24 156.405 487.24 146.279C487.24 132.449 485.832 122.923 483.038 117.74C480.224 112.556 476.143 109.954 470.815 109.954C464.664 109.954 458.794 112.616 453.165 117.94C447.556 123.263 442.269 130.388 437.323 139.294C432.378 148.22 427.955 158.467 424.095 170.035C420.215 181.602 416.878 193.53 414.064 205.759C411.249 218.007 409.118 230.115 407.651 242.083C406.183 254.051 405.439 265.098 405.439 275.225C405.439 290.395 407.108 300.842 410.445 306.566C413.782 312.29 418.125 315.152 423.472 315.152Z" fill="#2F66F6"/>
<path d="M873.021 339.908H783.983L820.873 167.433L725.824 339.908H671.284L653.232 161.449L614.734 339.908H578.648L632.787 86.3986H735.052L747.476 229.334L824.471 86.3986H927.541L873.001 339.908H873.021Z" fill="#2F66F6"/>
<path d="M1081.95 82.3959C1104.95 82.3959 1123.59 85.3178 1137.9 91.1818C1152.2 97.0457 1163.49 106.092 1171.8 118.34C1177.14 126.585 1181.28 135.912 1184.22 146.279C1187.16 156.666 1188.62 168.634 1188.62 182.203C1188.62 193.911 1187.56 205.618 1185.41 217.326C1183.26 229.034 1180.26 240.282 1176.38 251.069C1172.5 261.856 1167.82 271.963 1162.35 281.409C1156.86 290.856 1150.79 299.181 1144.09 306.366C1131.53 319.935 1117.03 329.461 1100.59 334.905C1084.15 340.349 1063.9 343.091 1039.84 343.091C1015.77 343.091 997.863 340.689 983.69 335.906C969.517 331.123 958.279 323.397 949.997 312.75C944.107 305.305 939.503 295.859 936.166 284.411C932.809 272.964 931.16 258.594 931.16 241.302C931.16 211.763 936.427 185.345 947.002 162.049C957.556 138.754 972.593 120.321 992.113 106.752C1003.87 98.5067 1016.98 92.3826 1031.42 88.3799C1045.85 84.3972 1062.7 82.3959 1081.95 82.3959ZM1036.64 315.152C1042.79 315.152 1048.6 312.43 1054.09 306.966C1059.56 301.523 1064.65 294.198 1069.33 285.012C1074.01 275.826 1078.28 265.379 1082.16 253.671C1086.04 241.963 1089.31 229.855 1091.99 217.346C1094.66 204.838 1096.73 192.39 1098.2 180.021C1099.67 167.653 1100.41 156.405 1100.41 146.279C1100.41 132.449 1099 122.923 1096.21 117.74C1093.41 112.556 1089.31 109.954 1083.99 109.954C1077.83 109.954 1071.96 112.616 1066.33 117.94C1060.73 123.263 1055.44 130.388 1050.49 139.294C1045.55 148.22 1041.13 158.467 1037.27 170.035C1033.39 181.602 1030.05 193.53 1027.23 205.759C1024.42 218.007 1022.29 230.115 1020.82 242.083C1019.35 254.051 1018.61 265.098 1018.61 275.225C1018.61 290.395 1020.28 300.842 1023.62 306.566C1026.95 312.29 1031.29 315.152 1036.64 315.152Z" fill="#2F66F6"/>
<path d="M1352.08 175.338H1206.82V206.419H1352.08V175.338Z" fill="#2F66F6"/>
<path d="M1597 339.888H1506.15L1450.43 250.749L1394.38 339.888H1183.33V308.828H1321.79L1321.46 308.688L1400.33 190.869L1335.54 85.0176H1189.75V53.9568H1399.75L1450.91 142.616L1500.44 53.9568H1590.14L1498.74 198.694L1597 339.888Z" fill="#2F66F6"/>
<path d="M0.302614 42.3374L0 345.841H84.8934V386.842L146.304 326.249L85.0346 265.656V307.195H36.7575V79.6669H60.6641L219.819 237.065V184.533L75.936 42.2576L0.302614 42.3374Z" fill="#2F66F6"/>
<path d="M293.697 344.505L294 41.0006H209.106V0L147.696 60.5731L208.965 121.186V79.6469H257.242V307.155H233.336L74.1807 149.777V202.289L218.064 344.584L293.697 344.505Z" fill="#2F66F6"/>
</svg>
